<?xml version="1.0" encoding="UTF-8" standalone="no"?>
<!DOCTYPE svg PUBLIC "-//W3C//DTD SVG 1.1//EN" "http://www.w3.org/Graphics/SVG/1.1/DTD/svg11.dtd">
<svg width="100%" height="100%" viewBox="0 0 108 99" version="1.1" xmlns="http://www.w3.org/2000/svg" xmlns:xlink="http://www.w3.org/1999/xlink" xml:space="preserve" xmlns:serif="http://www.serif.com/" style="fill-rule:evenodd;clip-rule:evenodd;stroke-linejoin:round;stroke-miterlimit:2;">
    <g transform="matrix(1,0,0,1,-340,-331.037)">
        <g transform="matrix(1,0,0,1,147.798,-1.40577)">
            <path d="M235,350L242.311,372.5L256.399,365.547L254.14,381.094L277.798,381.094L258.658,395L269.624,406.25L254.14,408.906L261.45,431.406L242.311,417.5L235,431.406L227.689,417.5L208.55,431.406L215.86,408.906L200.376,406.25L211.342,395L192.202,381.094L215.86,381.094L213.601,365.547L227.689,372.5L235,350Z" style="fill:rgb(0,117,161);"/>
        </g>
        <g transform="matrix(0.461358,0,0,0.461358,319.633,169.562)">
            <path d="M235,350L242.311,372.5L256.399,365.547L254.14,381.094L277.798,381.094L258.658,395L269.624,406.25L254.14,408.906L261.45,431.406L242.311,417.5L235,431.406L227.689,417.5L208.55,431.406L215.86,408.906L200.376,406.25L211.342,395L192.202,381.094L215.86,381.094L213.601,365.547L227.689,372.5L235,350Z" style="fill:rgb(0,117,161);"/>
        </g>
    </g>
</svg>
